<?xml version="1.0" encoding="UTF-8"?>
<svg version="1.1" xmlns="http://www.w3.org/2000/svg" width="1536" height="1536">
<path d="M0 0 C506.88 0 1013.76 0 1536 0 C1536 506.88 1536 1013.76 1536 1536 C1029.12 1536 522.24 1536 0 1536 C0 1029.12 0 522.24 0 0 Z " fill="#010101" transform="translate(0,0)"/>
<path d="M0 0 C102.9290625 -0.061875 102.9290625 -0.061875 207.9375 -0.125 C229.584646 -0.14320801 251.23179199 -0.16141602 273.53491211 -0.18017578 C300.01867676 -0.18920898 300.01867676 -0.18920898 312.42652893 -0.19088745 C321.07127478 -0.19274675 329.71599456 -0.20005857 338.36073303 -0.21115112 C348.34779669 -0.22394698 358.33483548 -0.22965675 368.32190738 -0.2268899 C373.42279294 -0.22569311 378.52362304 -0.22749381 383.62449825 -0.23843026 C433.69255252 -0.34061562 433.69255252 -0.34061562 458 4 C459.34481445 4.23759033 459.34481445 4.23759033 460.71679688 4.47998047 C503.60414965 12.17964774 542.67513023 30.40232373 574 61 C574.56356201 61.54164795 575.12712402 62.0832959 575.70776367 62.64135742 C593.08165105 79.59504359 605.54197381 101.42150022 614 124 C614.24830566 124.64743164 614.49661133 125.29486328 614.75244141 125.96191406 C618.82469562 136.70273148 621.0713971 147.70852781 623 159 C623.34224609 160.92779297 623.34224609 160.92779297 623.69140625 162.89453125 C630.97931617 212.38096857 619.69276431 265.66389359 589.99609375 306.109375 C585.99937542 311.39714277 581.56056669 316.19335957 577 321 C575.94918468 322.24231905 574.9062691 323.49140814 573.875 324.75 C570.59338664 328.59365764 566.89861343 331.79488992 563 335 C561.4840625 336.25490234 561.4840625 336.25490234 559.9375 337.53515625 C541.58877119 352.4758072 520.66900146 363.779785 498.3125 371.5 C497.43601807 371.80333252 496.55953613 372.10666504 495.65649414 372.41918945 C488.5003445 374.87102153 481.33604409 377.1416437 474 379 C472.7521875 379.32613281 471.504375 379.65226562 470.21875 379.98828125 C434.54053306 388.7349287 397.390641 387.55844714 360.94467221 387.41415299 C353.36917635 387.38497284 345.79370973 387.37949992 338.21816567 387.37496826 C324.71741456 387.36629495 311.2167622 387.33990048 297.71606445 387.30175781 C284.6307828 387.26482811 271.54552848 387.23666623 258.46020508 387.21972656 C257.64030765 387.21865457 256.82041022 387.21758258 255.97566742 387.21647811 C249.55994287 387.20815646 243.14421774 387.20033015 236.72849238 387.19265985 C205.48557085 387.15518168 174.2428976 387.07464952 143 387 C143 442.11 143 497.22 143 554 C95.81 554 48.62 554 0 554 C0 371.18 0 188.36 0 0 Z " fill="#FDFDFD" transform="translate(669,491)"/>
<path d="M0 0 C46.53 0 93.06 0 141 0 C141 182.82 141 365.64 141 554 C94.47 554 47.94 554 0 554 C0 371.18 0 188.36 0 0 Z " fill="#FDFDFD" transform="translate(449,491)"/>
<path d="M0 0 C68.62603107 -0.1613254 68.62603107 -0.1613254 97.390625 -0.1953125 C103.9733077 -0.20314264 110.55599001 -0.21122419 117.13867188 -0.21972656 C118.37602565 -0.22130906 118.37602565 -0.22130906 119.63837647 -0.22292352 C132.91320033 -0.24026686 146.18795407 -0.27177201 159.4627365 -0.30861118 C173.11112814 -0.34616807 186.75948335 -0.36826682 200.40792453 -0.37635398 C208.81312772 -0.38181137 217.21813274 -0.39897525 225.62327485 -0.43166587 C231.40620531 -0.45299642 237.18903503 -0.45915872 242.97200187 -0.45400551 C246.29637606 -0.45147207 249.6201332 -0.45730388 252.94449043 -0.4768219 C277.65923628 -0.61468021 302.16807334 -0.04999319 321.00830078 17.87231445 C324.7902821 21.63168399 328.11598424 25.51912987 331 30 C331.70125 31.051875 332.4025 32.10375 333.125 33.1875 C341.67797459 48.71884298 342.70043065 70.72686488 338.3125 87.6875 C333.42716814 104.29079569 325.79761276 118.56198196 310.1171875 127.23828125 C296.83616488 134.1932196 285.44756892 137.16081562 270.45240784 137.12025452 C269.2948651 137.12110894 268.13732236 137.12196337 266.94470257 137.12284368 C263.74525901 137.12420258 260.54585628 137.12109032 257.34641755 137.11606562 C253.89115727 137.11173724 250.43589882 137.11320924 246.9806366 137.1139679 C240.99863296 137.11449162 235.01664025 137.11136066 229.03463936 137.10573006 C220.38572738 137.09759451 211.73682067 137.09499773 203.08790528 137.09374207 C189.05477566 137.09155478 175.02165185 137.08490345 160.98852539 137.07543945 C147.35864287 137.06625698 133.72876194 137.0591917 120.09887695 137.05493164 C119.24981708 137.05466364 118.40075721 137.05439565 117.52596825 137.05411953 C110.8855189 137.05204004 104.2450695 137.05008314 97.6046201 137.04816496 C65.06974139 137.03873549 32.53487726 137.01861618 0 137 C0 91.79 0 46.58 0 0 Z " fill="#020202" transform="translate(811,616)"/>
</svg>
